<svg width="878" height="158" viewBox="0 0 878 158" fill="none" xmlns="http://www.w3.org/2000/svg">
<path d="M121.898 83.7057C123.321 87.5633 125.427 93.2629 121.761 83.3289C120.459 79.8025 120.876 80.9405 121.664 83.0752C118.045 73.345 112.844 62.7691 107.365 54.0044C101.492 44.6129 96.2285 39.2787 92.4659 37.3288C92.4659 37.3288 90.5277 35.9751 87.6929 37.1442L87.5957 37.1789C83.93 38.498 79.36 43.2707 74.0026 51.37C70.4504 56.7426 66.9331 63.0152 63.798 69.5378C60.3665 62.4153 56.4555 55.5312 52.6345 49.9509C48.7585 44.286 42.9836 36.752 37.657 36.752C37.2517 36.752 36.8499 36.7943 36.4601 36.875C34.0855 37.3058 31.5664 39.0441 28.5523 42.3323C26.0801 45.0321 23.3818 48.6625 20.5431 53.1237C14.7994 62.1422 9.34428 73.1566 5.58533 83.3405C1.59246 94.1741 -0.275321 103.008 0.0327275 109.596C0.247193 114.173 1.65875 120.003 7.05148 122.434L7.80796 122.745L8.50983 122.972C9.46904 123.249 10.4556 123.391 11.4499 123.391C15.7703 123.391 20.0128 120.845 24.0563 115.822C28.0141 110.908 31.8121 103.57 35.3447 94.0126C36.1402 91.8553 36.9084 89.5937 37.6416 87.2749C38.3706 89.5822 39.1388 91.836 39.9381 94.0011C46.3098 111.246 53.3908 121.003 60.9905 122.999L61.1074 123.03C61.2558 123.068 61.435 123.11 61.6338 123.149L61.7626 123.176C62.3397 123.283 62.9091 123.349 63.5016 123.368L63.572 123.372C63.8253 123.383 64.0983 123.376 64.3555 123.356C64.4686 123.353 64.5778 123.345 64.6912 123.337L64.9407 123.31C65.0341 123.299 65.1276 123.287 65.2252 123.272C65.346 123.256 65.5255 123.237 65.732 123.199C65.9038 123.168 66.0792 123.13 66.2779 123.083L66.3871 123.057C66.434 123.045 66.481 123.033 66.5275 123.022C74.1583 121.084 81.2709 111.319 87.6656 94.0049C88.4181 91.9668 89.1513 89.8398 89.8453 87.6478C90.5435 89.8359 91.2725 91.9629 92.0253 93.9972C95.5503 103.554 99.344 110.888 103.302 115.803C107.345 120.826 111.584 123.372 115.908 123.372C117.063 123.372 118.205 123.183 119.309 122.81C122.034 122.099 124.21 120.361 125.614 117.764C129.084 111.361 127.832 99.9006 121.898 83.7057Z" fill="white"/>
<path d="M37.0692 40.1899C30.6469 41.1475 16.5953 63.7641 8.92922 84.5123C0.783585 106.58 2.73323 117.237 9.132 119.552L9.13981 119.556L9.14761 119.56C15.562 121.84 24.0118 114.91 32.1613 92.8425C34.3644 86.8699 36.248 80.436 37.7179 74.1823C41.66 57.3339 42.5635 41.8323 38.4188 40.3056V40.3017H38.4111L38.4068 40.2979C38.0639 40.1786 37.4787 40.1245 37.0692 40.1899Z" fill="#F41CB2"/>
<path d="M63.8899 77.903C55.4985 58.2161 42.7556 38.974 37.036 40.287C32.891 41.8176 33.784 57.3297 37.7339 74.1823C39.1922 80.4318 41.0835 86.8619 43.2827 92.8306C49.6613 110.101 56.2172 118.091 61.8433 119.66C61.8725 119.669 61.9017 119.677 61.9302 119.686L61.9637 119.696C62.1236 119.734 62.3458 119.792 62.4942 119.819C62.9114 119.896 63.309 119.938 63.7069 119.953C63.8315 119.953 64.4009 119.938 64.5374 119.926C64.8142 119.888 64.7166 119.907 64.8142 119.888C64.9311 119.873 65.0522 119.861 65.1806 119.838C65.3133 119.815 65.4382 119.788 65.5628 119.757C65.6174 119.742 65.6682 119.734 65.7266 119.719C65.91 119.661 66.0972 119.603 66.2879 119.538C72.7023 117.227 74.6639 106.562 66.5106 84.4946C65.7031 82.3065 64.8257 80.1026 63.8899 77.903Z" fill="#FF912E"/>
<path d="M88.8697 40.3857C82.8767 42.5393 71.5179 59.9879 63.8909 77.9019C62.9512 80.1015 62.065 82.3104 61.2618 84.4985C53.1084 106.566 55.062 117.223 61.4644 119.542C61.6282 119.6 61.8077 119.65 61.9635 119.696C62.1234 119.734 62.2834 119.776 62.4314 119.803C62.8485 119.88 63.3088 119.938 63.7067 119.953C63.7494 119.953 63.7963 119.957 63.8432 119.957C63.9678 119.957 64.1043 119.953 64.2408 119.942C64.3423 119.938 64.4357 119.934 64.5372 119.926C64.6306 119.915 64.7164 119.907 64.814 119.888C64.9309 119.873 65.052 119.861 65.1804 119.838C65.3131 119.815 65.438 119.788 65.5626 119.757C65.6172 119.742 65.668 119.734 65.7264 119.719C71.3998 118.292 78.0376 110.315 84.4908 92.8314C86.6393 87.0242 88.4798 80.7748 89.9266 74.6907C93.6622 58.9918 95.1713 42.4483 90.9366 40.3792C90.6129 40.2677 90.3088 40.1985 90.0085 40.1754C89.6536 40.1793 89.2791 40.2434 88.8697 40.3857Z" fill="#F25511"/>
<path d="M89.9336 74.6872C91.38 80.7713 93.2206 87.0169 95.3729 92.8241C103.519 114.892 111.965 121.818 118.379 119.533C124.782 117.222 126.743 106.558 118.597 84.49C111.192 64.4571 97.6437 42.7137 90.9333 40.3792C90.6095 40.2677 90.3054 40.1985 90.0051 40.1754C89.6502 40.1793 89.28 40.2523 88.8705 40.3946C84.9515 42.4368 85.9561 57.9653 89.9336 74.6872Z" fill="#F41CB2"/>
<path d="M90.9042 43.8309C97.6146 46.1654 111.617 67.6905 119.026 87.7275C122.371 96.7959 124.021 101.938 123.959 108.707C124.364 102.973 122.777 95.2691 118.565 83.8546C111.161 63.8178 97.6184 42.0657 90.908 39.7313C90.5843 39.6197 90.2801 39.5505 89.9799 39.5275C89.625 39.5313 89.2547 39.6044 88.8452 39.7467C82.8519 41.9003 71.4931 59.5758 63.8661 77.4898C55.4747 57.8029 42.5761 38.4467 37.2575 39.5736C30.8274 40.5273 16.5715 63.114 8.90551 83.8623C4.69426 95.273 3.18132 103.176 3.58683 108.91C3.52447 100.992 5.09589 96.7998 8.44148 87.7352C16.1075 66.9867 30.8235 44.6232 37.2494 43.6694C42.5722 42.5426 53.2601 58.3028 63.8584 77.9397C73.6143 59.7296 82.8442 46 88.8372 43.8425C89.2236 43.7079 89.5781 43.6309 89.9137 43.6232" fill="#821414" fill-opacity="0.75"/>
<path d="M309.656 156.685V139.202H320.046V141.125H311.779V147.094H319.072V149.017H311.779V156.685H309.656Z" fill="white"/>
<path d="M331.11 156.685L338.228 139.202H340.425L347.543 156.685H345.321L343.298 151.715H335.38L333.357 156.685H331.11ZM336.105 149.817H342.548L339.326 141.849L336.105 149.817Z" fill="white"/>
<path d="M365.695 156.985C364.729 156.985 363.871 156.885 363.122 156.685C362.373 156.469 361.724 156.177 361.174 155.811C360.625 155.428 360.175 155.012 359.825 154.562C359.476 154.096 359.218 153.605 359.051 153.088L361.074 152.389C361.324 153.122 361.823 153.763 362.573 154.312C363.339 154.845 364.271 155.112 365.37 155.112C366.719 155.112 367.776 154.845 368.542 154.312C369.308 153.779 369.691 153.072 369.691 152.189C369.691 151.373 369.349 150.716 368.667 150.216C367.984 149.7 367.085 149.301 365.969 149.017L364.046 148.518C363.264 148.318 362.539 148.027 361.873 147.644C361.224 147.244 360.7 146.745 360.3 146.145C359.917 145.529 359.726 144.797 359.726 143.947C359.726 142.366 360.233 141.133 361.249 140.251C362.281 139.352 363.763 138.902 365.695 138.902C366.844 138.902 367.834 139.094 368.667 139.477C369.499 139.843 370.174 140.318 370.69 140.9C371.223 141.467 371.597 142.083 371.814 142.749L369.816 143.448C369.499 142.615 368.966 141.966 368.217 141.5C367.468 141.017 366.561 140.776 365.495 140.776C364.379 140.776 363.489 141.05 362.822 141.6C362.173 142.133 361.848 142.865 361.848 143.798C361.848 144.597 362.107 145.213 362.623 145.646C363.139 146.062 363.813 146.37 364.646 146.57L366.569 147.044C368.267 147.444 369.566 148.11 370.465 149.042C371.381 149.958 371.839 150.949 371.839 152.015C371.839 152.93 371.606 153.771 371.139 154.537C370.673 155.286 369.982 155.886 369.066 156.335C368.167 156.768 367.043 156.985 365.695 156.985Z" fill="white"/>
<path d="M385.432 156.685V139.202H387.555V146.72H397.445V139.202H399.543V156.685H397.445V148.643H387.555V156.685H385.432Z" fill="white"/>
<path d="M414.178 156.685V139.202H416.301V156.685H414.178Z" fill="white"/>
<path d="M438.392 156.985C436.71 156.985 435.22 156.602 433.921 155.836C432.622 155.07 431.607 154.004 430.874 152.639C430.141 151.274 429.775 149.708 429.775 147.944C429.775 146.162 430.133 144.597 430.849 143.248C431.582 141.883 432.589 140.817 433.871 140.051C435.153 139.285 436.635 138.902 438.317 138.902C439.998 138.902 441.48 139.294 442.762 140.076C444.061 140.842 445.068 141.908 445.784 143.273C446.5 144.622 446.858 146.179 446.858 147.944C446.858 149.708 446.5 151.274 445.784 152.639C445.068 154.004 444.069 155.07 442.787 155.836C441.522 156.602 440.057 156.985 438.392 156.985ZM438.392 155.062C439.64 155.062 440.739 154.762 441.688 154.162C442.638 153.546 443.378 152.706 443.911 151.64C444.461 150.574 444.735 149.342 444.735 147.944C444.735 146.562 444.461 145.338 443.911 144.272C443.362 143.19 442.604 142.349 441.638 141.75C440.689 141.133 439.582 140.825 438.317 140.825C437.068 140.825 435.961 141.133 434.995 141.75C434.029 142.349 433.272 143.19 432.722 144.272C432.173 145.338 431.898 146.562 431.898 147.944C431.898 149.342 432.173 150.574 432.722 151.64C433.272 152.706 434.038 153.546 435.02 154.162C436.002 154.762 437.126 155.062 438.392 155.062Z" fill="white"/>
<path d="M460.329 156.685V139.202H462.477L472.892 153.238V139.202H475.015V156.685H472.892L462.452 142.574V156.685H460.329Z" fill="white"/>
<path d="M509.344 156.685V141.125H503.774V139.202H517.011V141.125H511.442V156.685H509.344Z" fill="white"/>
<path d="M529.593 156.685V139.202H531.716V146.72H541.606V139.202H543.704V156.685H541.606V148.643H531.716V156.685H529.593Z" fill="white"/>
<path d="M558.339 156.685V139.202H568.679V141.125H560.462V146.77H567.955V148.668H560.462V154.762H568.729V156.685H558.339Z" fill="white"/>
<path d="M599.271 156.685V139.202H609.661V141.125H601.394V147.094H608.687V149.017H601.394V156.685H599.271Z" fill="white"/>
<path d="M629.266 157.06C627.95 157.06 626.785 156.785 625.769 156.235C624.77 155.669 623.988 154.895 623.422 153.913C622.855 152.914 622.572 151.765 622.572 150.466V139.202H624.695V150.466C624.695 151.382 624.887 152.198 625.27 152.914C625.669 153.613 626.219 154.162 626.918 154.562C627.617 154.945 628.417 155.136 629.316 155.136C630.232 155.136 631.039 154.945 631.738 154.562C632.454 154.162 633.004 153.613 633.387 152.914C633.786 152.198 633.986 151.382 633.986 150.466V139.202H636.084V150.466C636.084 151.765 635.801 152.914 635.235 153.913C634.669 154.895 633.87 155.669 632.837 156.235C631.805 156.785 630.614 157.06 629.266 157.06Z" fill="white"/>
<path d="M653.773 156.685V141.125H648.203V139.202H661.44V141.125H655.871V156.685H653.773Z" fill="white"/>
<path d="M680.466 157.06C679.15 157.06 677.985 156.785 676.969 156.235C675.97 155.669 675.188 154.895 674.622 153.913C674.055 152.914 673.772 151.765 673.772 150.466V139.202H675.895V150.466C675.895 151.382 676.087 152.198 676.47 152.914C676.869 153.613 677.419 154.162 678.118 154.562C678.817 154.945 679.617 155.136 680.516 155.136C681.432 155.136 682.239 154.945 682.938 154.562C683.654 154.162 684.204 153.613 684.587 152.914C684.986 152.198 685.186 151.382 685.186 150.466V139.202H687.284V150.466C687.284 151.765 687.001 152.914 686.435 153.913C685.869 154.895 685.07 155.669 684.037 156.235C683.005 156.785 681.814 157.06 680.466 157.06Z" fill="white"/>
<path d="M701.671 156.685V139.202H707.365C708.498 139.202 709.497 139.427 710.362 139.876C711.245 140.326 711.928 140.95 712.41 141.75C712.91 142.549 713.16 143.465 713.16 144.497C713.16 145.646 712.827 146.653 712.161 147.519C711.511 148.368 710.654 148.992 709.588 149.392L713.859 156.685H711.536L707.515 149.792C707.399 149.808 707.282 149.817 707.166 149.817C707.049 149.817 706.932 149.817 706.816 149.817H703.794V156.685H701.671ZM703.794 147.869H707.665C708.298 147.869 708.864 147.727 709.363 147.444C709.863 147.144 710.262 146.745 710.562 146.245C710.879 145.729 711.037 145.146 711.037 144.497C711.037 143.498 710.687 142.69 709.988 142.074C709.305 141.442 708.414 141.125 707.315 141.125H703.794V147.869Z" fill="white"/>
<path d="M727.295 156.685V139.202H737.635V141.125H729.418V146.77H736.911V148.668H729.418V154.762H737.685V156.685H727.295Z" fill="white"/>
<path d="M213.484 92.7557V53.7313H218.948V56.8533H220.353L224.099 53.7313H238.46L243.065 58.3362H244.704L250.245 53.7313H264.606L272.801 61.9264V92.7557H265.777V64.6581L261.484 60.3654H252.197L246.655 64.8923V92.7557H239.631V64.6581L235.338 60.3654H226.05L220.509 64.8923V92.7557H213.484Z" fill="white"/>
<path d="M300.53 108.365V101.731H324.725L327.457 98.9996V90.8045H326.208L323.867 92.7557H306.774L298.579 84.5606V53.7313H305.603V81.8289L309.896 86.1215H321.915L327.457 81.5167V53.7313H334.481V101.731L327.847 108.365H300.53Z" fill="white"/>
<path d="M361.054 92.7557V53.7313H366.518V56.8533H367.923L371.669 53.7313H389.933L398.128 61.9264V92.7557H391.103V64.6581L386.811 60.3654H373.62L368.079 64.9703V92.7557H361.054Z" fill="white"/>
<path d="M423.503 92.7557V53.7313H428.966V56.8533H430.371L434.117 53.7313H452.381L460.576 61.9264V92.7557H453.551V64.6581L449.259 60.3654H436.069L430.527 64.9703V92.7557H423.503Z" fill="white"/>
<path d="M494.146 92.7557L485.17 83.7801V62.7069L494.146 53.7313H515.609L524.585 62.7069V83.7801L515.609 92.7557H494.146ZM497.268 86.1215H512.487L517.561 81.0484V65.4386L512.487 60.3654H497.268L492.195 65.4386V81.0484L497.268 86.1215Z" fill="white"/>
<path d="M560.313 92.7557L545.64 56.0728V53.7313H552.352L565.152 86.1215H566.479L579.279 53.7313H585.679V56.0728L571.084 92.7557H560.313Z" fill="white"/>
<path d="M751.591 92.7557L746.518 87.6825V60.3654H738.713V53.7313H746.518V43.585H753.542V53.7313H767.591V60.3654H753.542V84.9508L754.713 86.1215H767.981V92.7557H751.591Z" fill="white"/>
<path d="M803.497 92.7557L794.521 83.7801V62.7069L803.497 53.7313H824.179L833.155 62.7069V77.1459H801.545V81.0484L806.618 86.1215H830.423V92.7557H803.497ZM801.545 70.5118H826.131V65.4386L821.057 60.3654H806.618L801.545 65.4386V70.5118Z" fill="white"/>
<path d="M244.974 137.244H187.784L169.531 116.868V26.1731L192.245 3H324.068" stroke="url(#paint0_linear_294_1260)" stroke-width="6"/>
<path d="M797.814 141.927H855.583L874.019 121.077V28.2735L851.076 4.56152H717.922" stroke="url(#paint1_linear_294_1260)" stroke-width="6"/>
<path d="M714.954 93.536H699.344V33.4385H714.954V93.536Z" fill="url(#paint2_linear_294_1260)"/>
<path d="M666.911 65.5033C655.533 66.8597 630.98 88.9378 620.508 93.4795L635.337 72.4624C643.195 67.2297 656.025 65.8149 661.1 65.5034L666.911 65.5033C667.628 65.4178 668.293 65.4146 668.898 65.5032L666.911 65.5033Z" fill="url(#paint3_linear_294_1260)"/>
<path d="M640.025 40.0727L601.781 93.5361H620.513L650.952 50.6093H656.806L672.415 93.5361H688.806L667.732 33.4385H650.562L640.025 40.0727Z" fill="url(#paint4_linear_294_1260)"/>
<defs>
<linearGradient id="paint0_linear_294_1260" x1="182.878" y1="3" x2="288.186" y2="53.7736" gradientUnits="userSpaceOnUse">
<stop stop-color="#1FC4FC"/>
<stop offset="0.788462" stop-color="#262B84" stop-opacity="0.8"/>
<stop offset="1" stop-opacity="0"/>
</linearGradient>
<linearGradient id="paint1_linear_294_1260" x1="874.019" y1="13.7403" x2="767.232" y2="86.54" gradientUnits="userSpaceOnUse">
<stop stop-color="#EF4789"/>
<stop offset="0.365385" stop-color="#D312B7" stop-opacity="0.8"/>
<stop offset="1" stop-opacity="0"/>
</linearGradient>
<linearGradient id="paint2_linear_294_1260" x1="699.588" y1="33.4385" x2="714.709" y2="93.536" gradientUnits="userSpaceOnUse">
<stop stop-color="#E20CC1"/>
<stop offset="1" stop-color="#1C7BF0"/>
</linearGradient>
<linearGradient id="paint3_linear_294_1260" x1="629.874" y1="76.3648" x2="664.215" y2="65.438" gradientUnits="userSpaceOnUse">
<stop stop-color="#C90BEF"/>
<stop offset="0.497215" stop-color="#A616E9"/>
<stop offset="1" stop-color="#1C0B34"/>
</linearGradient>
<linearGradient id="paint4_linear_294_1260" x1="631.44" y1="53.7312" x2="688.561" y2="93.5361" gradientUnits="userSpaceOnUse">
<stop stop-color="#F0118F"/>
<stop offset="0.196204" stop-color="#D204EE"/>
<stop offset="1" stop-color="#148FFF"/>
</linearGradient>
</defs>
</svg>
