<svg viewBox="0 0 573.253 116.809" overflow="visible" style="display: block;" fill="none" xmlns="http://www.w3.org/2000/svg">
<g id="Group 36">
<g id="mynnov te">
<path d="M35.868 74.9101V43.1685H40.3118V45.7079H41.4545L44.5017 43.1685H56.1826L59.9281 46.914H61.2612L65.7685 43.1685H77.4494L84.1152 49.8343V74.9101H78.4017V52.0562L74.9101 48.5646H67.3556L62.8483 52.2466V74.9101H57.1348V52.0562L53.6433 48.5646H46.0888L41.5815 52.2466V74.9101H35.868Z" fill="var(--fill-0, white)"/>
<path d="M106.669 87.6067V82.2107H126.349L128.571 79.9888V73.323H127.555L125.651 74.9101H111.748L105.082 68.2444V43.1685H110.795V66.0225L114.287 69.514H124.063L128.571 65.7685V43.1685H134.284V82.2107L128.888 87.6067H106.669Z" fill="var(--fill-0, white)"/>
<path d="M155.898 74.9101V43.1685H160.342V45.7079H161.485L164.532 43.1685H179.387L186.053 49.8343V74.9101H180.339V52.0562L176.848 48.5646H166.119L161.612 52.3101V74.9101H155.898Z" fill="var(--fill-0, white)"/>
<path d="M206.692 74.9101V43.1685H211.136V45.7079H212.279L215.326 43.1685H230.181L236.847 49.8343V74.9101H231.133V52.0562L227.642 48.5646H216.913L212.406 52.3101V74.9101H206.692Z" fill="var(--fill-0, white)"/>
<path d="M264.152 74.9101L256.851 67.6096V50.4691L264.152 43.1685H281.61L288.91 50.4691V67.6096L281.61 74.9101H264.152ZM266.691 69.514H279.07L283.197 65.3876V52.691L279.07 48.5646H266.691L262.565 52.691V65.3876L266.691 69.514Z" fill="var(--fill-0, white)"/>
<path d="M317.971 74.9101L306.036 45.073V43.1685H311.495L321.907 69.514H322.986L333.397 43.1685H338.603V45.073L326.731 74.9101H317.971Z" fill="var(--fill-0, white)"/>
<path d="M473.552 74.9101L469.426 70.7837V48.5646H463.077V43.1685H469.426V34.9157H475.139V43.1685H486.566V48.5646H475.139V68.5618L476.091 69.514H486.884V74.9101H473.552Z" fill="var(--fill-0, white)"/>
<path d="M515.771 74.9101L508.47 67.6096V50.4691L515.771 43.1685H532.594L539.894 50.4691V62.2135H514.184V65.3876L518.31 69.514H537.673V74.9101H515.771ZM514.184 56.8174H534.181V52.691L530.055 48.5646H518.31L514.184 52.691V56.8174Z" fill="var(--fill-0, white)"/>
</g>
<path id="Vector 225" d="M63.2682 111.096H16.7506L1.90449 94.5219V20.7529L20.3796 1.90449H127.601" stroke="url(#paint0_linear_0_4)" stroke-width="3.80899"/>
<path id="Vector 226" d="M509.365 114.904H556.352L571.348 97.9454V22.4609L552.687 3.17416H444.382" stroke="url(#paint1_linear_0_4)" stroke-width="3.80899"/>
<path id="Vector 227" d="M443.747 75.5449H431.051V26.6629H443.747V75.5449Z" fill="url(#paint2_linear_0_4)"/>
<g id="Group 35">
<path id="Vector 188" d="M404.676 52.7447C395.421 53.848 375.451 71.8059 366.932 75.5L378.994 58.4051C385.386 54.1489 395.821 52.9982 399.949 52.7449L404.676 52.7447C405.259 52.6752 405.8 52.6726 406.292 52.7447L404.676 52.7447Z" fill="url(#paint3_linear_0_4)"/>
<path id="Vector 186" d="M382.803 32.0596L351.697 75.5456H366.932L391.691 40.6298H396.452L409.149 75.5456H422.48L405.34 26.6635H391.373L382.803 32.0596Z" fill="url(#paint4_linear_0_4)"/>
</g>
</g>
<defs>
<linearGradient id="paint0_linear_0_4" x1="12.7604" y1="1.9045" x2="98.4159" y2="43.2026" gradientUnits="userSpaceOnUse">
<stop stop-color="#1FC4FC"/>
<stop offset="0.788462" stop-color="#262B84"/>
<stop offset="1" stop-opacity="0"/>
</linearGradient>
<linearGradient id="paint1_linear_0_4" x1="571.348" y1="10.64" x2="484.49" y2="69.8536" gradientUnits="userSpaceOnUse">
<stop stop-color="#EF4789"/>
<stop offset="0.365385" stop-color="#D312B7"/>
<stop offset="1" stop-opacity="0"/>
</linearGradient>
<linearGradient id="paint2_linear_0_4" x1="431.249" y1="26.6629" x2="443.549" y2="75.5449" gradientUnits="userSpaceOnUse">
<stop stop-color="#E20CC1"/>
<stop offset="1" stop-color="#1C7BF0"/>
</linearGradient>
<linearGradient id="paint3_linear_0_4" x1="374.55" y1="61.5793" x2="402.483" y2="52.6916" gradientUnits="userSpaceOnUse">
<stop stop-color="#C90BEF"/>
<stop offset="0.497215" stop-color="#A616E9"/>
<stop offset="1" stop-color="#1C0B34"/>
</linearGradient>
<linearGradient id="paint4_linear_0_4" x1="375.82" y1="43.1692" x2="422.281" y2="75.5456" gradientUnits="userSpaceOnUse">
<stop stop-color="#F0118F"/>
<stop offset="0.196204" stop-color="#D204EE"/>
<stop offset="1" stop-color="#148FFF"/>
</linearGradient>
</defs>
</svg>
