<svg width="878" height="158" viewBox="0 0 878 158" fill="none" xmlns="http://www.w3.org/2000/svg">
<path d="M121.898 84.1597C123.321 88.0172 125.427 93.7168 121.761 83.7829C120.459 80.2564 120.876 81.3944 121.664 83.5291C118.045 73.799 112.844 63.223 107.365 54.4583C101.492 45.0668 96.2285 39.7326 92.4659 37.7828C92.4659 37.7828 90.5277 36.429 87.6929 37.5982L87.5957 37.6328C83.93 38.9519 79.36 43.7246 74.0026 51.8239C70.4504 57.1966 66.9331 63.4691 63.798 69.9917C60.3665 62.8692 56.4555 55.9851 52.6345 50.4048C48.7585 44.7399 42.9836 37.2059 37.657 37.2059C37.2517 37.2059 36.8499 37.2482 36.4601 37.329C34.0855 37.7597 31.5664 39.498 28.5523 42.7862C26.0801 45.486 23.3818 49.1165 20.5431 53.5776C14.7994 62.5961 9.34428 73.6106 5.58533 83.7944C1.59246 94.628 -0.275321 103.462 0.0327275 110.05C0.247193 114.627 1.65875 120.457 7.05148 122.888L7.80796 123.199L8.50983 123.426C9.46904 123.703 10.4556 123.845 11.4499 123.845C15.7703 123.845 20.0128 121.299 24.0563 116.276C28.0141 111.362 31.8121 104.024 35.3447 94.4665C36.1402 92.3092 36.9084 90.0476 37.6416 87.7288C38.3706 90.0361 39.1388 92.2899 39.9381 94.455C46.3098 111.7 53.3908 121.457 60.9905 123.453L61.1074 123.484C61.2558 123.522 61.435 123.564 61.6338 123.603L61.7626 123.63C62.3397 123.737 62.9091 123.803 63.5016 123.822L63.572 123.826C63.8253 123.837 64.0983 123.83 64.3555 123.81C64.4686 123.806 64.5778 123.799 64.6912 123.791L64.9407 123.764C65.0341 123.753 65.1276 123.741 65.2252 123.726C65.346 123.71 65.5255 123.691 65.732 123.653C65.9038 123.622 66.0792 123.583 66.2779 123.537L66.3871 123.51C66.4341 123.499 66.481 123.487 66.5275 123.476C74.1583 121.538 81.2709 111.773 87.6656 94.4588C88.4181 92.4207 89.1513 90.2937 89.8453 88.1018C90.5435 90.2899 91.2725 92.4168 92.0253 94.4511C95.5503 104.008 99.344 111.342 103.302 116.257C107.345 121.28 111.584 123.826 115.908 123.826C117.063 123.826 118.205 123.637 119.309 123.264C122.034 122.553 124.21 120.814 125.614 118.218C129.084 111.815 127.832 100.355 121.898 84.1597Z" fill="white"/>
<path d="M37.0692 40.6438C30.6469 41.6014 16.5953 64.218 8.92922 84.9662C0.783585 107.034 2.73323 117.691 9.132 120.006L9.13981 120.01L9.14761 120.013C15.562 122.294 24.0118 115.364 32.1613 93.2964C34.3644 87.3238 36.248 80.8899 37.7178 74.6363C41.66 57.7878 42.5635 42.2863 38.4188 40.7595V40.7556H38.4111L38.4068 40.7518C38.0639 40.6326 37.4787 40.5784 37.0692 40.6438Z" fill="#F41CB2"/>
<path d="M63.8899 78.3569C55.4986 58.6701 42.7556 39.4279 37.036 40.7409C32.891 42.2715 33.784 57.7836 37.7339 74.6363C39.1922 80.8857 41.0835 87.3158 43.2827 93.2845C49.6613 110.555 56.2172 118.545 61.8433 120.114C61.8725 120.123 61.9017 120.131 61.9302 120.14L61.9637 120.15C62.1236 120.188 62.3458 120.246 62.4942 120.273C62.9114 120.349 63.309 120.392 63.7069 120.407C63.8315 120.407 64.4009 120.392 64.5374 120.38C64.8142 120.342 64.7166 120.361 64.8142 120.342C64.9311 120.326 65.0522 120.315 65.1806 120.292C65.3133 120.269 65.4382 120.242 65.5628 120.211C65.6174 120.196 65.6682 120.188 65.7266 120.173C65.91 120.115 66.0972 120.057 66.2879 119.992C72.7023 117.681 74.6639 107.016 66.5106 84.9485C65.7031 82.7604 64.8257 80.5565 63.8899 78.3569Z" fill="#FF912E"/>
<path d="M88.8697 40.8396C82.8767 42.9933 71.5179 60.4418 63.8909 78.3558C62.9512 80.5555 62.065 82.7643 61.2618 84.9524C53.1084 107.02 55.062 117.677 61.4644 119.996C61.6282 120.054 61.8077 120.103 61.9635 120.15C62.1234 120.188 62.2834 120.23 62.4314 120.257C62.8485 120.334 63.3088 120.392 63.7067 120.407C63.7494 120.407 63.7963 120.411 63.8432 120.411C63.9678 120.411 64.1043 120.407 64.2408 120.396C64.3423 120.392 64.4357 120.388 64.5372 120.38C64.6306 120.369 64.7164 120.361 64.814 120.342C64.9309 120.326 65.052 120.315 65.1804 120.292C65.3131 120.269 65.438 120.242 65.5626 120.211C65.6172 120.196 65.668 120.188 65.7264 120.173C71.3998 118.746 78.0376 110.769 84.4908 93.2853C86.6393 87.4781 88.4798 81.2287 89.9266 75.1446C93.6622 59.4457 95.1713 42.9022 90.9366 40.8331C90.6129 40.7216 90.3088 40.6524 90.0085 40.6293C89.6536 40.6332 89.2791 40.6973 88.8697 40.8396Z" fill="#F25511"/>
<path d="M89.9336 75.1412C91.38 81.2252 93.2206 87.4708 95.3729 93.278C103.519 115.346 111.965 122.272 118.379 119.987C124.782 117.676 126.743 107.011 118.597 84.944C111.192 64.911 97.6437 43.1676 90.9333 40.8331C90.6095 40.7216 90.3054 40.6524 90.0051 40.6293C89.6502 40.6332 89.28 40.7062 88.8705 40.8485C84.9515 42.8907 85.9561 58.4193 89.9336 75.1412Z" fill="#F41CB2"/>
<path d="M90.9042 44.2849C97.6146 46.6193 111.617 68.1444 119.026 88.1814C122.371 97.2499 124.021 102.392 123.959 109.161C124.364 103.427 122.777 95.7231 118.565 84.3085C111.161 64.2717 97.6184 42.5196 90.908 40.1852C90.5843 40.0737 90.2801 40.0044 89.9799 39.9814C89.625 39.9852 89.2547 40.0583 88.8452 40.2006C82.8519 42.3543 71.4931 60.0297 63.8661 77.9438C55.4747 58.2568 42.576 38.9007 37.2575 40.0275C30.8274 40.9813 16.5715 63.5679 8.90551 84.3162C4.69426 95.7269 3.18132 103.63 3.58683 109.364C3.52447 101.446 5.09589 97.2537 8.44148 88.1891C16.1075 67.4406 30.8235 45.0771 37.2494 44.1233C42.5722 42.9965 53.2601 58.7567 63.8584 78.3936C73.6143 60.1835 82.8442 46.4539 88.8372 44.2964C89.2236 44.1618 89.5781 44.0849 89.9137 44.0772" fill="#821414" fill-opacity="0.75"/>
<path d="M288.258 157.555V138.324H299.687V140.44H290.593V147.006H298.615V149.121H290.593V157.555H288.258Z" fill="white"/>
<path d="M311.856 157.555L319.686 138.324H322.104L329.934 157.555H327.489L325.263 152.088H316.554L314.329 157.555H311.856ZM317.351 150H324.439L320.895 141.236L317.351 150Z" fill="white"/>
<path d="M349.9 157.885C348.838 157.885 347.895 157.775 347.07 157.555C346.246 157.317 345.532 156.997 344.927 156.594C344.323 156.173 343.829 155.715 343.444 155.22C343.059 154.707 342.775 154.167 342.592 153.599L344.818 152.83C345.092 153.636 345.642 154.341 346.466 154.945C347.308 155.532 348.334 155.825 349.543 155.825C351.026 155.825 352.19 155.532 353.032 154.945C353.875 154.359 354.296 153.581 354.296 152.61C354.296 151.713 353.92 150.989 353.169 150.44C352.418 149.872 351.429 149.433 350.202 149.121L348.087 148.572C347.226 148.352 346.429 148.031 345.697 147.61C344.982 147.171 344.405 146.621 343.966 145.962C343.545 145.284 343.334 144.478 343.334 143.544C343.334 141.804 343.893 140.449 345.01 139.478C346.145 138.489 347.775 137.995 349.9 137.995C351.164 137.995 352.254 138.205 353.169 138.626C354.085 139.029 354.827 139.551 355.395 140.192C355.981 140.815 356.393 141.493 356.631 142.225L354.433 142.995C354.085 142.079 353.499 141.365 352.675 140.852C351.851 140.321 350.852 140.055 349.68 140.055C348.453 140.055 347.473 140.357 346.741 140.962C346.026 141.548 345.669 142.354 345.669 143.379C345.669 144.258 345.953 144.936 346.521 145.412C347.089 145.87 347.83 146.209 348.746 146.429L350.862 146.951C352.73 147.39 354.158 148.123 355.147 149.149C356.155 150.156 356.658 151.246 356.658 152.418C356.658 153.425 356.402 154.35 355.889 155.193C355.376 156.017 354.616 156.676 353.609 157.171C352.62 157.647 351.384 157.885 349.9 157.885Z" fill="white"/>
<path d="M371.611 157.555V138.324H373.946V146.594H384.826V138.324H387.133V157.555H384.826V148.709H373.946V157.555H371.611Z" fill="white"/>
<path d="M403.232 157.555V138.324H405.567V157.555H403.232Z" fill="white"/>
<path d="M429.867 157.885C428.017 157.885 426.378 157.464 424.949 156.621C423.52 155.779 422.403 154.607 421.597 153.105C420.791 151.603 420.389 149.881 420.389 147.94C420.389 145.98 420.782 144.258 421.57 142.775C422.376 141.273 423.484 140.101 424.894 139.258C426.304 138.416 427.934 137.995 429.784 137.995C431.634 137.995 433.264 138.425 434.675 139.286C436.103 140.128 437.211 141.3 437.999 142.802C438.786 144.286 439.18 145.998 439.18 147.94C439.18 149.881 438.786 151.603 437.999 153.105C437.211 154.607 436.112 155.779 434.702 156.621C433.31 157.464 431.698 157.885 429.867 157.885ZM429.867 155.77C431.24 155.77 432.449 155.44 433.493 154.781C434.537 154.103 435.352 153.178 435.938 152.006C436.543 150.834 436.845 149.478 436.845 147.94C436.845 146.42 436.543 145.073 435.938 143.901C435.334 142.711 434.501 141.786 433.438 141.126C432.394 140.449 431.176 140.11 429.784 140.11C428.411 140.11 427.193 140.449 426.13 141.126C425.068 141.786 424.235 142.711 423.63 143.901C423.026 145.073 422.724 146.42 422.724 147.94C422.724 149.478 423.026 150.834 423.63 152.006C424.235 153.178 425.077 154.103 426.158 154.781C427.238 155.44 428.475 155.77 429.867 155.77Z" fill="white"/>
<path d="M453.998 157.555V138.324H456.361L467.817 153.764V138.324H470.153V157.555H467.817L456.334 142.033V157.555H453.998Z" fill="white"/>
<path d="M507.914 157.555V140.44H501.787V138.324H516.348V140.44H510.222V157.555H507.914Z" fill="white"/>
<path d="M530.188 157.555V138.324H532.523V146.594H543.403V138.324H545.71V157.555H543.403V148.709H532.523V157.555H530.188Z" fill="white"/>
<path d="M561.809 157.555V138.324H573.183V140.44H564.144V146.649H572.386V148.737H564.144V155.44H573.238V157.555H561.809Z" fill="white"/>
<path d="M606.834 157.555V138.324H618.263V140.44H609.169V147.006H617.191V149.121H609.169V157.555H606.834Z" fill="white"/>
<path d="M639.828 157.968C638.381 157.968 637.099 157.665 635.982 157.061C634.883 156.438 634.022 155.586 633.4 154.506C632.777 153.407 632.465 152.143 632.465 150.715V138.324H634.801V150.715C634.801 151.722 635.011 152.619 635.433 153.407C635.872 154.176 636.477 154.781 637.246 155.22C638.015 155.641 638.894 155.852 639.883 155.852C640.891 155.852 641.779 155.641 642.548 155.22C643.336 154.781 643.94 154.176 644.361 153.407C644.801 152.619 645.021 151.722 645.021 150.715V138.324H647.328V150.715C647.328 152.143 647.017 153.407 646.394 154.506C645.772 155.586 644.893 156.438 643.757 157.061C642.621 157.665 641.312 157.968 639.828 157.968Z" fill="white"/>
<path d="M666.786 157.555V140.44H660.66V138.324H675.22V140.44H669.094V157.555H666.786Z" fill="white"/>
<path d="M696.148 157.968C694.701 157.968 693.419 157.665 692.302 157.061C691.203 156.438 690.342 155.586 689.72 154.506C689.097 153.407 688.785 152.143 688.785 150.715V138.324H691.121V150.715C691.121 151.722 691.331 152.619 691.753 153.407C692.192 154.176 692.797 154.781 693.566 155.22C694.335 155.641 695.214 155.852 696.203 155.852C697.211 155.852 698.099 155.641 698.868 155.22C699.656 154.781 700.26 154.176 700.681 153.407C701.121 152.619 701.341 151.722 701.341 150.715V138.324H703.648V150.715C703.648 152.143 703.337 153.407 702.714 154.506C702.092 155.586 701.213 156.438 700.077 157.061C698.941 157.665 697.632 157.968 696.148 157.968Z" fill="white"/>
<path d="M719.474 157.555V138.324H725.738C726.983 138.324 728.082 138.571 729.035 139.066C730.005 139.56 730.756 140.247 731.287 141.126C731.837 142.006 732.112 143.013 732.112 144.148C732.112 145.412 731.745 146.52 731.013 147.473C730.298 148.407 729.355 149.094 728.183 149.533L732.881 157.555H730.326L725.903 149.973C725.774 149.991 725.646 150 725.518 150C725.39 150 725.262 150 725.133 150H721.809V157.555H719.474ZM721.809 147.857H726.067C726.763 147.857 727.386 147.702 727.936 147.39C728.485 147.061 728.925 146.621 729.254 146.072C729.602 145.504 729.776 144.863 729.776 144.148C729.776 143.05 729.392 142.161 728.622 141.484C727.872 140.788 726.892 140.44 725.683 140.44H721.809V147.857Z" fill="white"/>
<path d="M747.661 157.555V138.324H759.035V140.44H749.996V146.649H758.238V148.737H749.996V155.44H759.09V157.555H747.661Z" fill="white"/>
<path d="M213.484 92.7557V53.7313H218.948V56.8533H220.353L224.099 53.7313H238.46L243.065 58.3362H244.704L250.245 53.7313H264.606L272.801 61.9264V92.7557H265.777V64.6581L261.484 60.3654H252.197L246.655 64.8923V92.7557H239.631V64.6581L235.338 60.3654H226.05L220.509 64.8923V92.7557H213.484Z" fill="white"/>
<path d="M300.53 108.365V101.731H324.725L327.457 98.9996V90.8045H326.208L323.867 92.7557H306.774L298.579 84.5606V53.7313H305.603V81.8289L309.896 86.1215H321.915L327.457 81.5167V53.7313H334.481V101.731L327.847 108.365H300.53Z" fill="white"/>
<path d="M361.054 92.7557V53.7313H366.518V56.8533H367.923L371.669 53.7313H389.933L398.128 61.9264V92.7557H391.103V64.6581L386.811 60.3654H373.62L368.079 64.9703V92.7557H361.054Z" fill="white"/>
<path d="M423.503 92.7557V53.7313H428.966V56.8533H430.371L434.117 53.7313H452.381L460.576 61.9264V92.7557H453.551V64.6581L449.259 60.3654H436.068L430.527 64.9703V92.7557H423.503Z" fill="white"/>
<path d="M494.146 92.7557L485.17 83.7801V62.7069L494.146 53.7313H515.609L524.585 62.7069V83.7801L515.609 92.7557H494.146ZM497.268 86.1215H512.487L517.561 81.0484V65.4386L512.487 60.3654H497.268L492.195 65.4386V81.0484L497.268 86.1215Z" fill="white"/>
<path d="M560.313 92.7557L545.64 56.0728V53.7313H552.352L565.152 86.1215H566.479L579.279 53.7313H585.679V56.0728L571.084 92.7557H560.313Z" fill="white"/>
<path d="M751.591 92.7557L746.518 87.6825V60.3654H738.713V53.7313H746.518V43.585H753.542V53.7313H767.591V60.3654H753.542V84.9508L754.713 86.1215H767.981V92.7557H751.591Z" fill="white"/>
<path d="M803.497 92.7557L794.521 83.7801V62.7069L803.497 53.7313H824.179L833.155 62.7069V77.1459H801.545V81.0484L806.618 86.1215H830.423V92.7557H803.497ZM801.545 70.5118H826.131V65.4386L821.057 60.3654H806.618L801.545 65.4386V70.5118Z" fill="white"/>
<path d="M244.974 137.244H187.784L169.531 116.868V26.1731L192.245 3H324.068" stroke="url(#paint0_linear_294_1260)" stroke-width="6"/>
<path d="M797.814 141.927H855.583L874.019 121.077V28.2735L851.076 4.56152H717.922" stroke="url(#paint1_linear_294_1260)" stroke-width="6"/>
<path d="M714.954 93.536H699.344V33.4385H714.954V93.536Z" fill="url(#paint2_linear_294_1260)"/>
<path d="M666.911 65.5033C655.533 66.8597 630.98 88.9378 620.508 93.4795L635.337 72.4624C643.195 67.2297 656.025 65.8149 661.1 65.5034L666.911 65.5033C667.628 65.4178 668.293 65.4146 668.898 65.5032L666.911 65.5033Z" fill="url(#paint3_linear_294_1260)"/>
<path d="M640.025 40.0727L601.781 93.5361H620.513L650.952 50.6093H656.806L672.415 93.5361H688.806L667.732 33.4385H650.562L640.025 40.0727Z" fill="url(#paint4_linear_294_1260)"/>
<defs>
<linearGradient id="paint0_linear_294_1260" x1="182.878" y1="3" x2="288.186" y2="53.7736" gradientUnits="userSpaceOnUse">
<stop stop-color="#1FC4FC"/>
<stop offset="0.788462" stop-color="#262B84" stop-opacity="0.8"/>
<stop offset="1" stop-opacity="0"/>
</linearGradient>
<linearGradient id="paint1_linear_294_1260" x1="874.019" y1="13.7403" x2="767.232" y2="86.54" gradientUnits="userSpaceOnUse">
<stop stop-color="#EF4789"/>
<stop offset="0.365385" stop-color="#D312B7" stop-opacity="0.8"/>
<stop offset="1" stop-opacity="0"/>
</linearGradient>
<linearGradient id="paint2_linear_294_1260" x1="699.588" y1="33.4385" x2="714.709" y2="93.536" gradientUnits="userSpaceOnUse">
<stop stop-color="#E20CC1"/>
<stop offset="1" stop-color="#1C7BF0"/>
</linearGradient>
<linearGradient id="paint3_linear_294_1260" x1="629.874" y1="76.3648" x2="664.215" y2="65.438" gradientUnits="userSpaceOnUse">
<stop stop-color="#C90BEF"/>
<stop offset="0.497215" stop-color="#A616E9"/>
<stop offset="1" stop-color="#1C0B34"/>
</linearGradient>
<linearGradient id="paint4_linear_294_1260" x1="631.44" y1="53.7312" x2="688.561" y2="93.5361" gradientUnits="userSpaceOnUse">
<stop stop-color="#F0118F"/>
<stop offset="0.196204" stop-color="#D204EE"/>
<stop offset="1" stop-color="#148FFF"/>
</linearGradient>
</defs>
</svg>
