<svg preserveAspectRatio="none" width="100%" height="100%" overflow="visible" style="display: block;" viewBox="0 0 331.687 225.556" fill="none" xmlns="http://www.w3.org/2000/svg">
<g id="Group">
<path id="Vector" d="M317.042 122.339C320.744 132.371 326.22 147.195 316.687 121.359C313.3 112.186 314.385 115.147 316.434 120.698C307.022 95.3918 293.493 67.8847 279.244 45.0887C263.971 20.6624 250.28 6.78875 240.493 1.71743C240.493 1.71743 235.453 -1.80348 228.08 1.23731L227.826 1.32733C218.293 4.75823 206.407 17.1715 192.472 38.2369C183.233 52.2106 174.085 68.5248 165.932 85.4892C157.007 66.9644 146.835 49.0598 136.896 34.546C126.815 19.8121 111.795 0.217044 97.9419 0.217044C96.8872 0.217044 95.8426 0.327073 94.8284 0.537128C88.6522 1.65742 82.1007 6.17859 74.2612 14.7308C67.8314 21.7526 60.8133 31.1951 53.4302 42.7981C38.4916 66.2542 24.3034 94.9017 14.5268 121.389C4.14178 149.566 -0.716071 172.542 0.0851195 189.676C0.64291 201.579 4.31419 216.743 18.3401 223.065L20.3076 223.875L22.1331 224.465C24.6279 225.186 27.1938 225.556 29.7799 225.556C41.0168 225.556 52.051 218.934 62.5679 205.871C72.8616 193.087 82.7396 174.002 91.9279 149.146C93.9968 143.534 95.9947 137.653 97.9014 131.621C99.7979 137.623 101.796 143.484 103.875 149.116C120.446 193.967 138.864 219.344 158.63 224.535L158.934 224.615C159.319 224.715 159.786 224.826 160.303 224.926L160.638 224.996C162.139 225.276 163.619 225.446 165.161 225.496L165.343 225.506C166.003 225.536 166.712 225.516 167.382 225.466C167.676 225.456 167.96 225.436 168.254 225.416L168.903 225.346C169.146 225.316 169.39 225.286 169.643 225.246C169.958 225.206 170.424 225.156 170.962 225.056C171.408 224.976 171.864 224.876 172.382 224.755L172.666 224.685C172.787 224.655 172.909 224.625 173.031 224.595C192.878 219.554 211.376 194.158 228.009 149.126C229.966 143.824 231.873 138.293 233.678 132.592C235.493 138.283 237.39 143.814 239.347 149.106C248.515 173.962 258.383 193.037 268.677 205.821C279.194 218.884 290.218 225.506 301.465 225.506C304.467 225.506 307.438 225.016 310.308 224.045C317.397 222.195 323.056 217.674 326.707 210.922C335.733 194.268 332.478 164.46 317.042 122.339Z" fill="var(--fill-0, white)"/>
</g>
</svg>
