<svg preserveAspectRatio="none" width="100%" height="100%" overflow="visible" style="display: block;" viewBox="0 0 360 250" fill="none" xmlns="http://www.w3.org/2000/svg">
<g id="Myntra Left In">
<path id="Vector" d="M180.166 114.101C158.341 62.8982 125.198 12.8515 110.321 16.2664C99.5409 20.2474 101.863 60.5927 112.137 104.424C115.93 120.678 120.849 137.403 126.568 152.927C143.159 197.845 160.209 218.627 174.842 222.707C174.919 222.73 174.994 222.752 175.068 222.774L175.156 222.8C175.572 222.9 176.15 223.05 176.535 223.12C177.62 223.32 178.655 223.43 179.689 223.47C180.014 223.47 181.494 223.43 181.849 223.4C182.569 223.3 182.316 223.35 182.569 223.3C182.874 223.26 183.188 223.23 183.523 223.17C183.868 223.11 184.192 223.04 184.517 222.96C184.659 222.92 184.79 222.9 184.943 222.86C185.419 222.71 185.906 222.56 186.403 222.39C203.086 216.378 208.187 188.641 186.981 131.246C184.882 125.554 182.6 119.823 180.166 114.101Z" fill="var(--fill-0, #FF912E)"/>
</g>
</svg>
