<svg preserveAspectRatio="none" width="100%" height="100%" overflow="visible" style="display: block;" viewBox="0 0 360 250" fill="none" xmlns="http://www.w3.org/2000/svg">
<g id="Myntra Top Shadow">
<path id="Top sharp depth 2" d="M250.453 25.4832C267.907 31.5548 304.326 87.5393 323.595 139.653C332.296 163.239 336.587 176.614 336.424 194.219C337.479 179.305 333.351 159.268 322.398 129.58C303.139 77.4667 267.917 20.892 250.463 14.8205C249.622 14.5304 248.831 14.3503 248.05 14.2903C247.127 14.3003 246.163 14.4904 245.098 14.8605C229.511 20.4619 199.968 66.4339 180.131 113.026C158.306 61.8227 124.757 11.4796 110.924 14.4103C94.2007 16.891 57.1228 75.6362 37.1843 129.6C26.2313 159.278 22.2963 179.833 23.3511 194.747C23.1888 174.152 27.2759 163.249 35.9774 139.673C55.9159 85.7089 94.1905 27.5438 110.904 25.0631C124.747 22.1324 152.546 63.123 180.111 114.196C205.485 66.834 229.49 31.1247 245.078 25.5132C246.082 25.1631 247.005 24.9631 247.877 24.9431" fill="var(--fill-0, #821414)" fill-opacity="0.75"/>
</g>
</svg>
