<svg preserveAspectRatio="none" width="100%" height="100%" overflow="visible" style="display: block;" viewBox="0 0 360 250" fill="none" xmlns="http://www.w3.org/2000/svg">
<g id="Myntra Right In">
<path id="Vector" d="M245.136 16.5234C229.548 22.1249 200.006 67.5066 180.169 114.099C177.725 119.82 175.42 125.565 173.33 131.256C152.124 188.651 157.205 216.368 173.858 222.4C174.284 222.55 174.75 222.68 175.156 222.8C175.572 222.9 175.988 223.01 176.373 223.08C177.458 223.28 178.655 223.43 179.689 223.47C179.801 223.47 179.923 223.48 180.044 223.48C180.369 223.48 180.724 223.47 181.079 223.44C181.342 223.43 181.586 223.42 181.849 223.4C182.093 223.37 182.316 223.35 182.57 223.3C182.874 223.26 183.188 223.23 183.523 223.17C183.868 223.11 184.192 223.04 184.517 222.96C184.659 222.92 184.791 222.9 184.943 222.86C199.699 219.149 216.963 198.4 233.747 152.929C239.335 137.825 244.122 121.571 247.885 105.747C257.6 64.9159 261.525 21.8881 250.511 16.5067C249.67 16.2166 248.879 16.0366 248.098 15.9765C247.175 15.9865 246.201 16.1533 245.136 16.5234Z" fill="var(--fill-0, #F25511)"/>
</g>
</svg>
