<svg preserveAspectRatio="none" width="100%" height="100%" overflow="visible" style="display: block;" viewBox="0 0 71 33" fill="none" xmlns="http://www.w3.org/2000/svg">
<g id="Tech week">
<path d="M4.34339 14.3438V2.86876H1.4478V0H13.0302V2.86876H10.1346V14.3438H4.34339Z" fill="var(--fill-0, black)"/>
<path d="M18.3581 14.3438V0H29.9405V2.86876H24.1493V5.73752H29.9405V8.60628H24.1493V11.475H29.9405V14.3438H18.3581Z" fill="var(--fill-0, black)"/>
<path d="M38.1639 14.3438V11.475H35.2684V2.86876H38.1639V0H46.8507V2.86876H49.7463V5.73752H43.9551V2.86876H41.0595V11.475H43.9551V8.60628H49.7463V11.475H46.8507V14.3438H38.1639Z" fill="var(--fill-0, black)"/>
<path d="M55.0742 14.3438V0H60.8654V5.73752H63.761V0H69.5522V14.3438H63.761V8.60628H60.8654V14.3438H55.0742Z" fill="var(--fill-0, black)"/>
<path d="M2.8956 33V30.1312H0V18.6562H5.79119V21.525H11.5824V18.6562H17.3736V30.1312H14.478V33H2.8956Z" fill="var(--fill-0, black)"/>
<path d="M22.7015 33V18.6562H34.2838V21.525H28.4927V24.3937H34.2838V27.2625H28.4927V30.1312H34.2838V33H22.7015Z" fill="var(--fill-0, black)"/>
<path d="M39.6117 33V18.6562H51.1941V21.525H45.4029V24.3937H51.1941V27.2625H45.4029V30.1312H51.1941V33H39.6117Z" fill="var(--fill-0, black)"/>
<path d="M56.522 33V18.6562H62.3132V21.525H65.2088V18.6562H71V21.525H68.1044V24.3937H65.2088V27.2625H68.1044V30.1312H71V33H65.2088V30.1312H62.3132V33H56.522Z" fill="var(--fill-0, black)"/>
</g>
</svg>
